<?xml version="1.0" encoding="utf-8"?>
<!-- Generator: Adobe Illustrator 24.3.0, SVG Export Plug-In . SVG Version: 6.00 Build 0)  -->
<svg version="1.1" id="Laag_1" xmlns="http://www.w3.org/2000/svg" xmlns:xlink="http://www.w3.org/1999/xlink" x="0px" y="0px"
	 viewBox="0 0 566.9 283.5" style="enable-background:new 0 0 566.9 283.5;" xml:space="preserve">
<style type="text/css">
	.st0{opacity:0.3;fill:#FFFFFF;enable-background:new    ;}
	.st1{fill:#FFFFFF;}
</style>
<path class="st0" d="M143.8,229.3c-11.6,11.5-27.4,18.7-45,18.7c-17.6,0-33.5-7.1-45-18.7C42.1,217.7,35,201.8,35,184.2
	c0-17.6,7.1-33.5,18.7-45c11.5-11.5,27.2-18.5,44.7-18.6v-16.1c-43.9,0.2-79.4,35.8-79.4,79.8c0,44.1,35.7,79.8,79.8,79.8
	c44.1,0,79.8-35.7,79.8-79.8c0,0,0-0.1,0-0.1h-16.1c0,0,0,0.1,0,0.1C162.4,201.8,155.3,217.7,143.8,229.3z M63.9,184.2
	c0-19.1,15.4-34.5,34.4-34.8v-16.1c-27.9,0.2-50.5,22.9-50.5,50.8c0,28.1,22.8,50.9,50.9,50.9c28.1,0,50.8-22.8,50.9-50.9
	c0,0,0-0.1,0-0.1h-16.1c0,0,0,0.1,0,0.1c0,19.2-15.6,34.8-34.8,34.8C79.5,219,63.9,203.4,63.9,184.2z"/>
<g>
	<path class="st1" d="M343.2,176.9c0,1.4-0.7,2.2-2.2,2.2h-21.6c-0.9,0-1.5-0.3-1.9-0.8c-0.4-0.5-1-1.5-1.6-2.7l-25.5-47.3h-2.5
		c-0.9,0-3-0.1-6.1-0.2c-3.2-0.1-5.3-0.2-6.2-0.3c-1-0.1-2.1-0.1-3.4-0.2v48c0,1-0.3,1.9-1,2.6c-0.7,0.7-1.5,1-2.4,1H251
		c-0.9,0-1.7-0.3-2.4-1s-1.1-1.5-1.1-2.5v-122c0-1.7,0.5-2.9,1.4-3.7s2.4-1.3,4.3-1.6c9.7-1.6,21.3-2.3,34.7-2.3
		c15.2,0,27.5,3.1,36.9,9.4C334.3,61.7,339,71.9,339,86v1.6c0,9.1-2.1,16.6-6.3,22.7c-4.2,6.1-10.1,10.6-17.7,13.5l27.9,51.8
		C343.1,175.9,343.2,176.4,343.2,176.9z M314.5,87.6V86c0-6.6-2.2-11.5-6.5-14.5c-4.4-3-11-4.5-20-4.5c-1.3,0-4,0.1-8,0.3
		c-4,0.2-6.6,0.3-7.8,0.4v39.9c5.7,0.3,11,0.5,15.8,0.5c9.3,0,16-1.5,20.3-4.6C312.4,100.5,314.5,95.2,314.5,87.6z"/>
	<path class="st1" d="M441.3,64.8c0,1-0.3,1.8-1,2.4c-0.7,0.5-1.5,0.8-2.5,0.8h-31v107.6c0,1-0.3,1.9-1,2.6c-0.7,0.7-1.5,1-2.5,1
		h-17.6c-0.9,0-1.7-0.3-2.4-1s-1.1-1.5-1.1-2.5V68h-31c-1,0-1.8-0.3-2.5-0.9c-0.7-0.6-1-1.4-1-2.3v-14c0-0.9,0.3-1.7,1-2.4
		c0.7-0.7,1.5-1,2.6-1h86.6c1,0,1.9,0.3,2.6,0.9c0.7,0.6,1,1.4,1,2.5V64.8z"/>
	<path class="st1" d="M490.3,159.5c7.6,0,13-1.3,16.2-3.9s4.8-6.6,4.8-12.1c0-3.4-1-6.3-3-8.7c-2-2.4-5.9-5.2-11.7-8.7l-23.4-14
		c-5.3-3.2-9.5-6.5-12.6-9.9s-5.3-6.9-6.5-10.6c-1.2-3.7-1.8-7.7-1.8-11.9c0-10.4,3.4-18.7,10.3-24.7c6.8-6,17.8-9,32.9-9
		c5.9,0,11.7,0.7,17.3,2.2c5.7,1.4,10,3,13.2,4.8c1.3,0.8,2.3,1.5,2.9,2.1c0.6,0.7,1,1.5,1,2.6v12c0,2.9-1.5,3.8-4.4,2.7
		c-3.2-1.2-7.8-2.4-13.8-3.5c-6-1.2-11.3-1.7-16-1.7c-12.4,0-18.6,4.1-18.6,12.4c0,2.9,1,5.3,2.9,7.3c1.9,2,5.8,4.7,11.6,8.1
		l21.3,12.6c6.2,3.7,11.1,7.4,14.6,11.1c3.5,3.7,5.9,7.5,7.3,11.4c1.4,3.9,2.1,8.4,2.1,13.4c0,6.5-1.5,12.6-4.5,18.1
		c-3,5.6-7.9,10.1-14.7,13.6c-6.8,3.5-15.6,5.3-26.5,5.3c-7.3,0-13.9-0.8-20-2.5c-6-1.7-10.2-3.2-12.6-4.6c-1.7-1-2.8-1.7-3.2-2.3
		c-0.5-0.5-0.7-1.4-0.7-2.5v-12c0-2.7,1.5-3.6,4.5-2.7C470.5,157.6,480.9,159.5,490.3,159.5z"/>
</g>
<g>
	<path class="st1" d="M203.9,193.4C203.9,193.4,203.9,193.4,203.9,193.4c0,0.1,0,0.1,0,0.1l-3.5,13.4c-0.4,1.5-1.4,2.2-3,2.2
		c-1.6,0-2.6-0.7-3-2.2l-3.5-13.4c0,0,0,0,0-0.1s0,0,0,0c0-0.1,0-0.2,0.1-0.3c0.1-0.1,0.2-0.1,0.3-0.1h2.3c0.1,0,0.2,0,0.3,0.1
		c0.1,0.1,0.1,0.2,0.1,0.3l3.1,12.9c0,0.1,0.1,0.2,0.1,0.3c0,0,0.1,0.1,0.2,0.1c0.1,0,0.2,0,0.2-0.1c0,0,0.1-0.1,0.1-0.3l3.1-12.9
		c0-0.1,0.1-0.2,0.1-0.3c0.1-0.1,0.2-0.1,0.3-0.1h2.3c0.1,0,0.2,0,0.3,0.1S203.9,193.3,203.9,193.4z"/>
	<path class="st1" d="M217.1,202.4c0,1.5-0.3,2.8-0.8,3.8s-1.2,1.7-2.2,2.2c-0.9,0.5-2,0.7-3.2,0.7s-2.3-0.2-3.2-0.7
		c-0.9-0.5-1.6-1.2-2.2-2.2c-0.5-1-0.8-2.3-0.8-3.8v-2.9c0-1.5,0.3-2.8,0.8-3.8c0.5-1,1.2-1.7,2.2-2.2c0.9-0.5,2-0.7,3.2-0.7
		s2.3,0.2,3.2,0.7c0.9,0.5,1.6,1.2,2.2,2.2s0.8,2.3,0.8,3.8V202.4z M214.1,202.4v-2.9c0-1.4-0.3-2.4-0.8-3.1c-0.5-0.7-1.3-1-2.4-1
		c-1.1,0-1.8,0.3-2.4,1c-0.5,0.7-0.8,1.7-0.8,3.1v2.9c0,1.4,0.3,2.4,0.8,3.1c0.5,0.7,1.3,1,2.4,1c1.1,0,1.8-0.3,2.4-1
		C213.8,204.9,214.1,203.8,214.1,202.4z"/>
	<path class="st1" d="M222.5,208.5c0,0.1,0,0.2-0.1,0.3c-0.1,0.1-0.2,0.1-0.3,0.1h-2.1c-0.1,0-0.2,0-0.3-0.1
		c-0.1-0.1-0.1-0.2-0.1-0.3v-15.1c0-0.1,0-0.2,0.1-0.3c0.1-0.1,0.2-0.1,0.3-0.1h2.1c0.1,0,0.2,0,0.3,0.1c0.1,0.1,0.1,0.2,0.1,0.3
		L222.5,208.5L222.5,208.5z"/>
	<path class="st1" d="M230.8,209.1c-0.7,0-1.4-0.1-2.1-0.3c-0.7-0.2-1.3-0.6-1.9-1c-0.6-0.5-1.1-1.2-1.4-2c-0.4-0.9-0.5-1.9-0.5-3.2
		v-3.2c0-1.7,0.3-3.1,0.9-4c0.6-1,1.3-1.6,2.2-2c0.9-0.4,1.8-0.5,2.9-0.5c0.5,0,1.1,0.1,1.6,0.2c0.5,0.1,0.9,0.2,1.3,0.4
		s0.6,0.2,0.7,0.3c0.3,0.2,0.5,0.4,0.5,0.6v1.5c0,0.4-0.2,0.5-0.5,0.3c-0.2-0.1-0.6-0.2-1-0.3c-0.4-0.1-0.8-0.2-1.2-0.3
		s-0.8-0.1-1.1-0.1c-0.7,0-1.3,0.1-1.7,0.4c-0.5,0.3-0.8,0.7-1,1.3c-0.2,0.6-0.3,1.4-0.3,2.4v3.2c0,1,0.1,1.8,0.3,2.3s0.6,1,1,1.3
		s1,0.4,1.7,0.4c0.6,0,1.1-0.1,1.7-0.2s1.1-0.3,1.6-0.4c0.4-0.1,0.5,0,0.5,0.3v1.5c0,0.2-0.2,0.4-0.5,0.6c-0.3,0.2-0.8,0.3-1.4,0.5
		C232.2,209,231.5,209.1,230.8,209.1z"/>
	<path class="st1" d="M246.4,208.4c0,0.3-0.1,0.4-0.4,0.4c-0.1,0-0.3,0-0.6,0.1c-0.2,0-0.6,0.1-1,0.1s-0.8,0.1-1.1,0.1
		c-0.3,0-0.7,0-1.4,0c-1,0-1.9-0.1-2.6-0.4c-0.7-0.2-1.3-0.7-1.7-1.3c-0.4-0.6-0.6-1.5-0.6-2.7v-7.5c0-1.2,0.2-2.1,0.6-2.7
		c0.4-0.6,1-1.1,1.7-1.3c0.7-0.2,1.6-0.4,2.6-0.4c1.5,0,2.9,0.1,4.1,0.3c0.2,0,0.3,0.1,0.3,0.1c0.1,0.1,0.1,0.2,0.1,0.3v1.4
		c0,0.1,0,0.2-0.1,0.3s-0.2,0.1-0.3,0.1h-4.4c-0.6,0-1.1,0.1-1.3,0.4s-0.4,0.7-0.4,1.4v2.3h5.8c0.1,0,0.2,0,0.3,0.1s0.1,0.2,0.1,0.3
		v1.5c0,0.1,0,0.2-0.1,0.3c-0.1,0.1-0.2,0.1-0.3,0.1h-5.8v2.8c0,0.7,0.1,1.2,0.4,1.4c0.3,0.3,0.7,0.4,1.3,0.4h4.4
		c0.1,0,0.2,0,0.3,0.1c0.1,0.1,0.1,0.2,0.1,0.3L246.4,208.4L246.4,208.4z"/>
	<path class="st1" d="M265.8,202.6c0,1.4-0.3,2.6-0.8,3.6s-1.3,1.7-2.3,2.2c-1,0.5-2.2,0.8-3.6,0.8c-0.3,0-0.9,0-1.5,0
		c-0.7,0-1.2-0.1-1.7-0.1s-0.8-0.1-1-0.1c-0.4-0.1-0.6-0.3-0.6-0.7v-14.4c0-0.4,0.2-0.6,0.6-0.7c0.2,0,0.6-0.1,1-0.1
		c0.5,0,1-0.1,1.7-0.1s1.2,0,1.5,0c1.4,0,2.6,0.3,3.6,0.8s1.8,1.2,2.3,2.2c0.5,1,0.8,2.2,0.8,3.6L265.8,202.6L265.8,202.6z
		 M262.8,202.6v-3.2c0-1-0.2-1.8-0.5-2.4s-0.8-1-1.3-1.3c-0.6-0.2-1.2-0.4-2-0.4c-0.3,0-0.6,0-0.7,0s-0.3,0-0.5,0
		c-0.2,0-0.4,0-0.6,0v11.1c0.4,0,0.7,0,0.9,0s0.6,0,0.9,0c0.8,0,1.4-0.1,2-0.4c0.6-0.2,1-0.7,1.3-1.3
		C262.7,204.4,262.8,203.6,262.8,202.6z"/>
	<path class="st1" d="M279.9,208.6c0,0.1,0,0.2-0.1,0.3s-0.2,0.1-0.3,0.1h-2.3c-0.1,0-0.2,0-0.3-0.1c-0.1-0.1-0.1-0.2-0.2-0.3
		l-1-4.1h-4.9l-1,4.1c0,0.1-0.1,0.2-0.2,0.3c-0.1,0.1-0.2,0.1-0.3,0.1h-2.3c-0.1,0-0.2,0-0.3-0.1s-0.1-0.2-0.1-0.3c0,0,0,0,0,0
		c0,0,0,0,0-0.1l3.5-13.4c0.4-1.5,1.4-2.2,3-2.2c1.6,0,2.6,0.7,3,2.2l3.5,13.4C279.9,208.5,279.9,208.5,279.9,208.6
		C279.9,208.6,279.9,208.6,279.9,208.6z M275.3,202.1l-1.5-6.4c0-0.1-0.1-0.2-0.1-0.3c0,0-0.1-0.1-0.2-0.1c-0.1,0-0.2,0-0.2,0.1
		c0,0-0.1,0.1-0.1,0.3l-1.5,6.4H275.3z"/>
	<path class="st1" d="M290.7,195.1c0,0.1,0,0.2-0.1,0.3c-0.1,0.1-0.2,0.1-0.3,0.1h-3.8v13c0,0.1,0,0.2-0.1,0.3s-0.2,0.1-0.3,0.1H284
		c-0.1,0-0.2,0-0.3-0.1c-0.1-0.1-0.1-0.2-0.1-0.3v-13h-3.7c-0.1,0-0.2,0-0.3-0.1c-0.1-0.1-0.1-0.2-0.1-0.3v-1.7c0-0.1,0-0.2,0.1-0.3
		c0.1-0.1,0.2-0.1,0.3-0.1h10.5c0.1,0,0.2,0,0.3,0.1s0.1,0.2,0.1,0.3L290.7,195.1L290.7,195.1z"/>
	<path class="st1" d="M303.2,208.6c0,0.1,0,0.2-0.1,0.3s-0.2,0.1-0.3,0.1h-2.3c-0.1,0-0.2,0-0.3-0.1c-0.1-0.1-0.1-0.2-0.2-0.3
		l-1-4.1h-4.9l-1,4.1c0,0.1-0.1,0.2-0.2,0.3s-0.2,0.1-0.3,0.1h-2.3c-0.1,0-0.2,0-0.3-0.1s-0.1-0.2-0.1-0.3c0,0,0,0,0,0
		c0,0,0,0,0-0.1l3.5-13.4c0.4-1.5,1.4-2.2,3-2.2c1.6,0,2.6,0.7,3,2.2l3.5,13.4C303.2,208.5,303.2,208.5,303.2,208.6
		C303.2,208.6,303.2,208.6,303.2,208.6z M298.6,202.1l-1.5-6.4c0-0.1-0.1-0.2-0.1-0.3c0,0-0.1-0.1-0.2-0.1c-0.1,0-0.2,0-0.2,0.1
		c0,0-0.1,0.1-0.1,0.3l-1.5,6.4H298.6z"/>
	<path class="st1" d="M322.4,193.4C322.4,193.4,322.4,193.4,322.4,193.4c0,0.1,0,0.1,0,0.1l-3.5,13.4c-0.4,1.5-1.4,2.2-3,2.2
		c-1.6,0-2.6-0.7-3-2.2l-3.5-13.4c0,0,0,0,0-0.1c0,0,0,0,0,0c0-0.1,0-0.2,0.1-0.3s0.2-0.1,0.3-0.1h2.3c0.1,0,0.2,0,0.3,0.1
		c0.1,0.1,0.1,0.2,0.1,0.3l3.1,12.9c0,0.1,0.1,0.2,0.1,0.3c0,0,0.1,0.1,0.2,0.1c0.1,0,0.2,0,0.2-0.1c0,0,0.1-0.1,0.1-0.3l3.1-12.9
		c0-0.1,0.1-0.2,0.1-0.3c0.1-0.1,0.2-0.1,0.3-0.1h2.3c0.1,0,0.2,0,0.3,0.1S322.4,193.3,322.4,193.4z"/>
	<path class="st1" d="M327.2,208.5c0,0.1,0,0.2-0.1,0.3c-0.1,0.1-0.2,0.1-0.3,0.1h-2.1c-0.1,0-0.2,0-0.3-0.1
		c-0.1-0.1-0.1-0.2-0.1-0.3v-15.1c0-0.1,0-0.2,0.1-0.3c0.1-0.1,0.2-0.1,0.3-0.1h2.1c0.1,0,0.2,0,0.3,0.1c0.1,0.1,0.1,0.2,0.1,0.3
		L327.2,208.5L327.2,208.5z"/>
	<path class="st1" d="M341.5,202.6c0,1.4-0.3,2.6-0.8,3.6s-1.3,1.7-2.3,2.2c-1,0.5-2.2,0.8-3.6,0.8c-0.3,0-0.9,0-1.5,0
		c-0.7,0-1.2-0.1-1.7-0.1c-0.4,0-0.8-0.1-1-0.1c-0.4-0.1-0.6-0.3-0.6-0.7v-14.4c0-0.4,0.2-0.6,0.6-0.7c0.2,0,0.6-0.1,1-0.1
		c0.5,0,1-0.1,1.7-0.1s1.2,0,1.5,0c1.4,0,2.6,0.3,3.6,0.8c1,0.5,1.8,1.2,2.3,2.2c0.5,1,0.8,2.2,0.8,3.6L341.5,202.6L341.5,202.6z
		 M338.5,202.6v-3.2c0-1-0.2-1.8-0.5-2.4c-0.3-0.6-0.8-1-1.3-1.3c-0.6-0.2-1.2-0.4-2-0.4c-0.3,0-0.6,0-0.7,0c-0.1,0-0.3,0-0.5,0
		c-0.2,0-0.4,0-0.6,0v11.1c0.4,0,0.7,0,0.9,0s0.6,0,0.9,0c0.8,0,1.4-0.1,2-0.4c0.6-0.2,1-0.7,1.3-1.3
		C338.4,204.4,338.5,203.6,338.5,202.6z"/>
	<path class="st1" d="M353.3,208.4c0,0.3-0.1,0.4-0.4,0.4c-0.1,0-0.3,0-0.6,0.1c-0.2,0-0.6,0.1-1,0.1s-0.8,0.1-1.1,0.1
		c-0.3,0-0.7,0-1.4,0c-1,0-1.9-0.1-2.6-0.4c-0.7-0.2-1.3-0.7-1.7-1.3c-0.4-0.6-0.6-1.5-0.6-2.7v-7.5c0-1.2,0.2-2.1,0.6-2.7
		s1-1.1,1.7-1.3c0.7-0.2,1.6-0.4,2.6-0.4c1.5,0,2.9,0.1,4.1,0.3c0.2,0,0.3,0.1,0.3,0.1s0.1,0.2,0.1,0.3v1.4c0,0.1,0,0.2-0.1,0.3
		c-0.1,0.1-0.2,0.1-0.3,0.1h-4.4c-0.6,0-1.1,0.1-1.3,0.4s-0.4,0.7-0.4,1.4v2.3h5.8c0.1,0,0.2,0,0.3,0.1s0.1,0.2,0.1,0.3v1.5
		c0,0.1,0,0.2-0.1,0.3s-0.2,0.1-0.3,0.1h-5.8v2.8c0,0.7,0.1,1.2,0.4,1.4s0.7,0.4,1.3,0.4h4.4c0.1,0,0.2,0,0.3,0.1
		c0.1,0.1,0.1,0.2,0.1,0.3L353.3,208.4L353.3,208.4z"/>
	<path class="st1" d="M367.7,202.4c0,1.5-0.3,2.8-0.8,3.8s-1.2,1.7-2.2,2.2s-2,0.7-3.2,0.7s-2.3-0.2-3.2-0.7
		c-0.9-0.5-1.6-1.2-2.2-2.2s-0.8-2.3-0.8-3.8v-2.9c0-1.5,0.3-2.8,0.8-3.8s1.2-1.7,2.2-2.2c0.9-0.5,2-0.7,3.2-0.7
		c1.2,0,2.3,0.2,3.2,0.7s1.6,1.2,2.2,2.2s0.8,2.3,0.8,3.8V202.4z M364.7,202.4v-2.9c0-1.4-0.3-2.4-0.8-3.1c-0.5-0.7-1.3-1-2.4-1
		c-1.1,0-1.8,0.3-2.4,1c-0.5,0.7-0.8,1.7-0.8,3.1v2.9c0,1.4,0.3,2.4,0.8,3.1c0.5,0.7,1.3,1,2.4,1c1.1,0,1.8-0.3,2.4-1
		C364.4,204.9,364.7,203.8,364.7,202.4z"/>
	<path class="st1" d="M381,209.1c-0.7,0-1.4-0.1-2.1-0.3c-0.7-0.2-1.3-0.6-1.9-1c-0.6-0.5-1.1-1.2-1.4-2c-0.4-0.9-0.5-1.9-0.5-3.2
		v-3.2c0-1.7,0.3-3.1,0.9-4s1.3-1.6,2.2-2c0.9-0.4,1.8-0.5,2.9-0.5c0.5,0,1.1,0.1,1.6,0.2s0.9,0.2,1.3,0.4c0.4,0.1,0.6,0.2,0.7,0.3
		c0.3,0.2,0.5,0.4,0.5,0.6v1.5c0,0.4-0.2,0.5-0.5,0.3c-0.2-0.1-0.6-0.2-1-0.3c-0.4-0.1-0.8-0.2-1.2-0.3c-0.4-0.1-0.8-0.1-1.1-0.1
		c-0.7,0-1.3,0.1-1.7,0.4c-0.5,0.3-0.8,0.7-1,1.3c-0.2,0.6-0.3,1.4-0.3,2.4v3.2c0,1,0.1,1.8,0.3,2.3s0.6,1,1,1.3s1,0.4,1.7,0.4
		c0.6,0,1.1-0.1,1.7-0.2c0.6-0.1,1.1-0.3,1.6-0.4c0.4-0.1,0.5,0,0.5,0.3v1.5c0,0.2-0.2,0.4-0.5,0.6c-0.3,0.2-0.8,0.3-1.4,0.5
		C382.4,209,381.7,209.1,381,209.1z"/>
	<path class="st1" d="M398.6,202.4c0,1.5-0.3,2.8-0.8,3.8s-1.2,1.7-2.2,2.2s-2,0.7-3.2,0.7s-2.3-0.2-3.2-0.7
		c-0.9-0.5-1.6-1.2-2.2-2.2s-0.8-2.3-0.8-3.8v-2.9c0-1.5,0.3-2.8,0.8-3.8s1.2-1.7,2.2-2.2c0.9-0.5,2-0.7,3.2-0.7
		c1.2,0,2.3,0.2,3.2,0.7s1.6,1.2,2.2,2.2s0.8,2.3,0.8,3.8V202.4z M395.6,202.4v-2.9c0-1.4-0.3-2.4-0.8-3.1c-0.5-0.7-1.3-1-2.4-1
		c-1.1,0-1.8,0.3-2.4,1c-0.5,0.7-0.8,1.7-0.8,3.1v2.9c0,1.4,0.3,2.4,0.8,3.1c0.5,0.7,1.3,1,2.4,1c1.1,0,1.8-0.3,2.4-1
		C395.3,204.9,395.6,203.8,395.6,202.4z"/>
	<path class="st1" d="M414.7,208.6c0,0.2-0.1,0.3-0.4,0.3h-2.2c-0.1,0-0.2,0-0.2-0.1c-0.1-0.1-0.1-0.2-0.1-0.3v-10
		c0-0.1,0-0.2-0.1-0.2c0,0-0.1,0-0.1,0.1l-2.1,4.1c-0.1,0.2-0.4,0.4-0.7,0.4h-2.2c-0.3,0-0.5-0.1-0.7-0.4l-2.1-4.1
		c0-0.1-0.1-0.1-0.1-0.1c0,0-0.1,0.1-0.1,0.2v10c0,0.1,0,0.2-0.1,0.3c-0.1,0.1-0.1,0.1-0.2,0.1h-2.2c-0.2,0-0.4-0.1-0.4-0.3v-14.8
		c0-0.2,0.1-0.4,0.3-0.6c0.2-0.2,0.4-0.3,0.6-0.3h1.8c0.3,0,0.6,0.2,0.8,0.5l3.2,6.6c0.1,0.2,0.2,0.3,0.2,0.3c0.1,0,0.1-0.1,0.2-0.3
		l3.2-6.6c0.2-0.3,0.4-0.5,0.8-0.5h1.8c0.2,0,0.4,0.1,0.6,0.3c0.2,0.2,0.3,0.4,0.3,0.6L414.7,208.6L414.7,208.6z"/>
	<path class="st1" d="M431.3,208.6c0,0.2-0.1,0.3-0.4,0.3h-2.2c-0.1,0-0.2,0-0.2-0.1c-0.1-0.1-0.1-0.2-0.1-0.3v-10
		c0-0.1,0-0.2-0.1-0.2c0,0-0.1,0-0.1,0.1l-2.1,4.1c-0.1,0.2-0.4,0.4-0.7,0.4h-2.2c-0.3,0-0.5-0.1-0.7-0.4l-2.1-4.1
		c0-0.1-0.1-0.1-0.1-0.1c0,0-0.1,0.1-0.1,0.2v10c0,0.1,0,0.2-0.1,0.3c-0.1,0.1-0.1,0.1-0.2,0.1h-2.2c-0.2,0-0.4-0.1-0.4-0.3v-14.8
		c0-0.2,0.1-0.4,0.3-0.6c0.2-0.2,0.4-0.3,0.6-0.3h1.8c0.3,0,0.6,0.2,0.8,0.5l3.2,6.6c0.1,0.2,0.2,0.3,0.2,0.3c0.1,0,0.1-0.1,0.2-0.3
		l3.2-6.6c0.2-0.3,0.4-0.5,0.8-0.5h1.8c0.2,0,0.4,0.1,0.6,0.3c0.2,0.2,0.3,0.4,0.3,0.6L431.3,208.6L431.3,208.6z"/>
	<path class="st1" d="M445.7,203.1c0,1.1-0.1,2.1-0.4,2.8s-0.7,1.4-1.2,1.9s-1.1,0.8-1.9,1c-0.7,0.2-1.5,0.3-2.4,0.3
		s-1.7-0.1-2.4-0.3c-0.7-0.2-1.3-0.6-1.8-1c-0.5-0.5-0.9-1.1-1.2-1.9c-0.3-0.8-0.4-1.7-0.4-2.8v-9.6c0-0.1,0-0.2,0.1-0.3
		c0.1-0.1,0.2-0.1,0.3-0.1h2.1c0.1,0,0.2,0,0.3,0.1c0.1,0.1,0.1,0.2,0.1,0.3v9.6c0,0.9,0.1,1.5,0.3,2.1s0.5,0.9,0.9,1.2
		s1,0.4,1.8,0.4s1.4-0.1,1.8-0.4c0.4-0.3,0.7-0.6,0.9-1.2c0.2-0.5,0.3-1.2,0.3-2.1v-9.6c0-0.1,0-0.2,0.1-0.3
		c0.1-0.1,0.2-0.1,0.3-0.1h2.1c0.1,0,0.2,0,0.3,0.1c0.1,0.1,0.1,0.2,0.1,0.3L445.7,203.1L445.7,203.1z"/>
	<path class="st1" d="M460.4,208.1c0,0.2-0.1,0.4-0.3,0.6c-0.2,0.2-0.4,0.3-0.6,0.3h-2.2c-0.3,0-0.6,0-0.8-0.1s-0.4-0.3-0.5-0.6
		l-4.8-10.4c-0.1-0.1-0.1-0.2-0.2-0.2c-0.1,0-0.1,0.1-0.1,0.2v10.8c0,0.1,0,0.2-0.1,0.3c-0.1,0.1-0.2,0.1-0.3,0.1h-1.8
		c-0.1,0-0.2,0-0.3-0.1c-0.1-0.1-0.1-0.2-0.1-0.3v-14.7c0-0.2,0.1-0.4,0.3-0.6c0.2-0.2,0.4-0.3,0.6-0.3h2.3c0.2,0,0.4,0,0.6,0.1
		c0.1,0.1,0.3,0.3,0.4,0.5l5,11c0.1,0.1,0.1,0.2,0.2,0.2c0.1,0,0.1-0.1,0.1-0.2v-11.3c0-0.1,0-0.2,0.1-0.3c0.1-0.1,0.2-0.1,0.3-0.1
		h1.8c0.1,0,0.2,0,0.3,0.1c0.1,0.1,0.1,0.2,0.1,0.3L460.4,208.1L460.4,208.1z"/>
	<path class="st1" d="M466.2,208.5c0,0.1,0,0.2-0.1,0.3c-0.1,0.1-0.2,0.1-0.3,0.1h-2.1c-0.1,0-0.2,0-0.3-0.1
		c-0.1-0.1-0.1-0.2-0.1-0.3v-15.1c0-0.1,0-0.2,0.1-0.3c0.1-0.1,0.2-0.1,0.3-0.1h2.1c0.1,0,0.2,0,0.3,0.1c0.1,0.1,0.1,0.2,0.1,0.3
		L466.2,208.5L466.2,208.5z"/>
	<path class="st1" d="M474.5,209.1c-0.7,0-1.4-0.1-2.1-0.3c-0.7-0.2-1.3-0.6-1.9-1c-0.6-0.5-1.1-1.2-1.4-2c-0.4-0.9-0.5-1.9-0.5-3.2
		v-3.2c0-1.7,0.3-3.1,0.9-4s1.3-1.6,2.2-2c0.9-0.4,1.8-0.5,2.9-0.5c0.5,0,1.1,0.1,1.6,0.2s0.9,0.2,1.3,0.4c0.4,0.1,0.6,0.2,0.7,0.3
		c0.3,0.2,0.5,0.4,0.5,0.6v1.5c0,0.4-0.2,0.5-0.5,0.3c-0.2-0.1-0.6-0.2-1-0.3c-0.4-0.1-0.8-0.2-1.2-0.3c-0.4-0.1-0.8-0.1-1.1-0.1
		c-0.7,0-1.3,0.1-1.7,0.4c-0.5,0.3-0.8,0.7-1,1.3c-0.2,0.6-0.3,1.4-0.3,2.4v3.2c0,1,0.1,1.8,0.3,2.3s0.6,1,1,1.3s1,0.4,1.7,0.4
		c0.6,0,1.1-0.1,1.7-0.2c0.6-0.1,1.1-0.3,1.6-0.4c0.4-0.1,0.5,0,0.5,0.3v1.5c0,0.2-0.2,0.4-0.5,0.6c-0.3,0.2-0.8,0.3-1.4,0.5
		C475.9,209,475.2,209.1,474.5,209.1z"/>
	<path class="st1" d="M492.7,208.6c0,0.1,0,0.2-0.1,0.3s-0.2,0.1-0.3,0.1H490c-0.1,0-0.2,0-0.3-0.1c-0.1-0.1-0.1-0.2-0.2-0.3l-1-4.1
		h-4.9l-1,4.1c0,0.1-0.1,0.2-0.2,0.3s-0.2,0.1-0.3,0.1h-2.3c-0.1,0-0.2,0-0.3-0.1s-0.1-0.2-0.1-0.3c0,0,0,0,0,0c0,0,0,0,0-0.1
		l3.5-13.4c0.4-1.5,1.4-2.2,3-2.2c1.6,0,2.6,0.7,3,2.2l3.5,13.4C492.7,208.5,492.7,208.5,492.7,208.6
		C492.7,208.6,492.7,208.6,492.7,208.6z M488.1,202.1l-1.5-6.4c0-0.1-0.1-0.2-0.1-0.3c0,0-0.1-0.1-0.2-0.1c-0.1,0-0.2,0-0.2,0.1
		c0,0-0.1,0.1-0.1,0.3l-1.5,6.4H488.1z"/>
	<path class="st1" d="M503.5,195.1c0,0.1,0,0.2-0.1,0.3c-0.1,0.1-0.2,0.1-0.3,0.1h-3.8v13c0,0.1,0,0.2-0.1,0.3
		c-0.1,0.1-0.2,0.1-0.3,0.1h-2.1c-0.1,0-0.2,0-0.3-0.1c-0.1-0.1-0.1-0.2-0.1-0.3v-13h-3.8c-0.1,0-0.2,0-0.3-0.1
		c-0.1-0.1-0.1-0.2-0.1-0.3v-1.7c0-0.1,0-0.2,0.1-0.3c0.1-0.1,0.2-0.1,0.3-0.1h10.5c0.1,0,0.2,0,0.3,0.1s0.1,0.2,0.1,0.3
		L503.5,195.1L503.5,195.1z"/>
	<path class="st1" d="M508.4,208.5c0,0.1,0,0.2-0.1,0.3c-0.1,0.1-0.2,0.1-0.3,0.1h-2.1c-0.1,0-0.2,0-0.3-0.1
		c-0.1-0.1-0.1-0.2-0.1-0.3v-15.1c0-0.1,0-0.2,0.1-0.3c0.1-0.1,0.2-0.1,0.3-0.1h2.1c0.1,0,0.2,0,0.3,0.1c0.1,0.1,0.1,0.2,0.1,0.3
		L508.4,208.5L508.4,208.5z"/>
	<path class="st1" d="M523,202.4c0,1.5-0.3,2.8-0.8,3.8s-1.2,1.7-2.2,2.2s-2,0.7-3.2,0.7c-1.2,0-2.3-0.2-3.2-0.7
		c-0.9-0.5-1.6-1.2-2.2-2.2s-0.8-2.3-0.8-3.8v-2.9c0-1.5,0.3-2.8,0.8-3.8c0.5-1,1.2-1.7,2.2-2.2c0.9-0.5,2-0.7,3.2-0.7
		c1.2,0,2.3,0.2,3.2,0.7s1.6,1.2,2.2,2.2s0.8,2.3,0.8,3.8V202.4z M520,202.4v-2.9c0-1.4-0.3-2.4-0.8-3.1c-0.5-0.7-1.3-1-2.4-1
		c-1.1,0-1.8,0.3-2.4,1c-0.5,0.7-0.8,1.7-0.8,3.1v2.9c0,1.4,0.3,2.4,0.8,3.1c0.5,0.7,1.3,1,2.4,1c1.1,0,1.8-0.3,2.4-1
		C519.7,204.9,520,203.8,520,202.4z"/>
	<path class="st1" d="M537.4,208.1c0,0.2-0.1,0.4-0.3,0.6c-0.2,0.2-0.4,0.3-0.6,0.3h-2.2c-0.3,0-0.6,0-0.8-0.1s-0.4-0.3-0.5-0.6
		l-4.8-10.4c-0.1-0.1-0.1-0.2-0.2-0.2c-0.1,0-0.1,0.1-0.1,0.2v10.8c0,0.1,0,0.2-0.1,0.3c-0.1,0.1-0.2,0.1-0.3,0.1h-1.8
		c-0.1,0-0.2,0-0.3-0.1c-0.1-0.1-0.1-0.2-0.1-0.3v-14.7c0-0.2,0.1-0.4,0.3-0.6c0.2-0.2,0.4-0.3,0.6-0.3h2.3c0.2,0,0.4,0,0.6,0.1
		c0.1,0.1,0.3,0.3,0.4,0.5l5,11c0.1,0.1,0.1,0.2,0.2,0.2c0.1,0,0.1-0.1,0.1-0.2v-11.3c0-0.1,0-0.2,0.1-0.3c0.1-0.1,0.2-0.1,0.3-0.1
		h1.8c0.1,0,0.2,0,0.3,0.1c0.1,0.1,0.1,0.2,0.1,0.3L537.4,208.1L537.4,208.1z"/>
</g>
<g>
	<path class="st1" d="M105.1,133.8V150c14.2,2.7,25.3,13.9,27.8,28.2h16.2C146.5,155.1,128.2,136.7,105.1,133.8z"/>
	<path class="st1" d="M105.1,164.5v13.8h13.5C116.7,171.7,111.6,166.6,105.1,164.5z"/>
	<path class="st1" d="M105.1,76.8v16.1c22.7,1.6,43.1,11.4,58.3,26.6c15.3,15.3,25.1,35.9,26.6,58.8h16.1
		C203.2,123.7,159.6,80,105.1,76.8z"/>
	<path class="st1" d="M105.1,104.7v16.1c15,1.5,28.5,8.2,38.6,18.3c10.2,10.2,17,23.9,18.4,39.1h16.1
		C175.3,139.1,144.2,107.9,105.1,104.7z"/>
</g>
<path class="st1" d="M105.1,48.4v17.1c30.1,1.7,57.2,14.6,77.2,34.6c20.2,20.2,33.2,47.7,34.6,78.1H234
	C231.1,108.2,175.1,51.9,105.1,48.4z"/>
<path class="st1" d="M98.7,163.4c-11.5,0-20.8,9.3-20.8,20.8S87.2,205,98.7,205c11.5,0,20.8-9.3,20.8-20.8S110.2,163.4,98.7,163.4z"
	/>
</svg>
